<svg xmlns="http://www.w3.org/2000/svg" width="143.468" height="39.641" viewBox="0 0 143.468 39.641">
  <g id="Grupo_7969" data-name="Grupo 7969" transform="translate(-179.287 -224.392)">
    <path id="Caminho_7884" data-name="Caminho 7884" d="M376.563,320.71V320.2a2.574,2.574,0,0,1,2.249-2.139h.375c1.632.22,2.756,2.293,3.836,3.373a18.836,18.836,0,0,0,10.936,4.784,1.517,1.517,0,0,1,.287.044c.11.022.242.044.375.066h1.389c.11-.022.243-.044.375-.066a1.116,1.116,0,0,1,.287-.044c5.843-.463,10.428-3.528,13.912-8.136,0,.992-1.852,3-2.447,3.792a24,24,0,0,1-9.106,6.151c-1.676.419-3.329.728-5.071.992h-2.8c-5.578-.375-10.252-3.109-14.088-7.055a3.728,3.728,0,0,1-.507-1.257" transform="translate(-136.52 -64.988)" fill="#fff" fill-rule="evenodd"/>
    <path id="Caminho_7885" data-name="Caminho 7885" d="M427.107,344.848h.375v.066c-.132-.022-.265-.044-.375-.066" transform="translate(-171.587 -83.571)" fill="#fff" fill-rule="evenodd"/>
    <path id="Caminho_7886" data-name="Caminho 7886" d="M428.331,344.914v-.066h1.389v.066h-1.389" transform="translate(-172.436 -83.571)" fill="#fff" fill-rule="evenodd"/>
    <path id="Caminho_7887" data-name="Caminho 7887" d="M432.867,344.914v-.066h.375c-.132.022-.265.044-.375.066" transform="translate(-175.583 -83.571)" fill="#fff" fill-rule="evenodd"/>
    <path id="Caminho_7888" data-name="Caminho 7888" d="M426.171,344.674c.287-.022.287-.022.287.044a1.521,1.521,0,0,0-.287-.044" transform="translate(-170.938 -83.441)" fill="#fff" fill-rule="evenodd"/>
    <path id="Caminho_7889" data-name="Caminho 7889" d="M434.091,344.718c0-.066,0-.066.287-.044a1.119,1.119,0,0,0-.287.044" transform="translate(-176.432 -83.441)" fill="#fff" fill-rule="evenodd"/>
    <path id="Caminho_7890" data-name="Caminho 7890" d="M185.4,311.944h1.1v.088h-1.1v-.088" transform="translate(-3.896 -60.742)" fill="#fff" fill-rule="evenodd"/>
    <path id="Caminho_7891" data-name="Caminho 7891" d="M309.963,311.944h.309v.088h-.309v-.088" transform="translate(-90.314 -60.742)" fill="#fff" fill-rule="evenodd"/>
    <path id="Caminho_7892" data-name="Caminho 7892" d="M334.947,311.944h.816v.088h-.816v-.088" transform="translate(-107.648 -60.742)" fill="#fff" fill-rule="evenodd"/>
    <path id="Caminho_7893" data-name="Caminho 7893" d="M391.611,311.988a3.621,3.621,0,0,1,.507-.044v.088a4.3,4.3,0,0,0-.507-.044" transform="translate(-146.96 -60.742)" fill="#fff" fill-rule="evenodd"/>
    <path id="Caminho_7894" data-name="Caminho 7894" d="M393.267,312.032v-.088h2.2v.088h-2.2" transform="translate(-148.109 -60.742)" fill="#fff" fill-rule="evenodd"/>
    <path id="Caminho_7895" data-name="Caminho 7895" d="M400.467,312.032v-.088c.22,0,.441.022.661.044-.22,0-.441.022-.661.044" transform="translate(-153.105 -60.742)" fill="#fff" fill-rule="evenodd"/>
    <path id="Caminho_7896" data-name="Caminho 7896" d="M439.563,311.988a2.715,2.715,0,0,1,.441-.044v.088a3.312,3.312,0,0,0-.441-.044" transform="translate(-180.229 -60.742)" fill="#fff" fill-rule="evenodd"/>
    <path id="Caminho_7897" data-name="Caminho 7897" d="M441,312.032v-.088h.309v.088H441" transform="translate(-181.228 -60.742)" fill="#fff" fill-rule="evenodd"/>
    <path id="Caminho_7898" data-name="Caminho 7898" d="M442.011,312.032v-.088a3.315,3.315,0,0,1,.441.044,2.712,2.712,0,0,0-.441.044" transform="translate(-181.927 -60.742)" fill="#fff" fill-rule="evenodd"/>
    <path id="Caminho_7902" data-name="Caminho 7902" d="M623.883,311.944h.375v.088h-.375v-.088" transform="translate(-308.107 -60.742)" fill="#fff" fill-rule="evenodd"/>
    <path id="Subtração_2" data-name="Subtração 2" d="M-4293.071-945.117h-.066a6.393,6.393,0,0,0-.662-.044h-2.2a3.558,3.558,0,0,0-.508.044h-.087l-.049-.01a1.2,1.2,0,0,0-.238-.034,1.33,1.33,0,0,0-.287-.023c-2.544-.344-4.9-.883-5.821-3.659-.086-.435-.151-.837-.22-1.28v-1.322a10.055,10.055,0,0,1,1.014-3.859,6.846,6.846,0,0,1,3.076-2.665,15.446,15.446,0,0,1,4.067-.929h.376l.025,0a5.26,5.26,0,0,1,.57-.042h.066c.754,0,1.542.021,2.3.041h.006l.115,0h.816a8.927,8.927,0,0,1,4.4,1.337,5.089,5.089,0,0,1,1.9,4.065v.375a8.105,8.105,0,0,1-2.823,6.372c-.4.211-.805.445-1.2.671l-.06.034a16.4,16.4,0,0,1-3.859.86h-.007a1.1,1.1,0,0,0-.279.023,1.879,1.879,0,0,0-.375.044Zm-1.807-2.381c.35,0,.711,0,1.079.022,1.905-.279,2.9-.679,3.749-2.314.042-.167.087-.333.136-.508l.014-.051a7.4,7.4,0,0,0,.356-1.932v-1.213c-.452-2.093-.9-2.707-3.152-3.042h-1.323c-3.093.325-3.879,2.054-4.145,4.74a2.089,2.089,0,0,0,.021.353v.639a1.719,1.719,0,0,0-.021.33c.254,1.846,1.2,2.8,2.888,2.932a2.371,2.371,0,0,1,.376.044Z" transform="translate(4541.161 1196.363)" fill="#fff" stroke="rgba(0,0,0,0)" stroke-width="1"/>
    <path id="Caminho_7904" data-name="Caminho 7904" d="M433.991,279.952a2.2,2.2,0,0,1-.044-.353c.375-3.792.75-7.584,1.146-11.376.353-.9,1.235-.992,2.117-1.08h1.1c.6.088,1.565.088,1.742.794a26.8,26.8,0,0,1,3.858-.992h.353c.309,0,.639.022.97.044h1.235a11.787,11.787,0,0,1,3.461.794,2.874,2.874,0,0,1,1.455,2.756c-.309,3-.6,6.019-.882,9.039-.419.97-1.124.992-2.117,1.191a3.311,3.311,0,0,0-.441-.044h-.287a2.712,2.712,0,0,0-.441.044c-.507-.044-1.543-.22-1.7-.816V279.6l.86-9.062c-.088-1.323-.287-1.433-1.587-1.676a1.728,1.728,0,0,0-.309-.044h-.441a2.713,2.713,0,0,0-.441.044,8.336,8.336,0,0,0-3.77,1.191l-.926,9.789a3.331,3.331,0,0,1-2.05.926,3.311,3.311,0,0,0-.441-.044h-.309a2.712,2.712,0,0,0-.441.044,4.831,4.831,0,0,1-1.565-.507,2.67,2.67,0,0,1-.11-.309" transform="translate(-176.333 -29.522)" fill="#fff" fill-rule="evenodd"/>
    <path id="Caminho_7905" data-name="Caminho 7905" d="M185.187,311.872h1.323a.327.327,0,0,0-.154.022h-1.1a.081.081,0,0,0-.066-.022" transform="translate(-3.746 -60.692)" fill="#fff" fill-rule="evenodd"/>
    <path id="Caminho_7906" data-name="Caminho 7906" d="M302.253,267.736a3.1,3.1,0,0,0-.441-.022c-1.9-.309-1.455-.838-1.345-2.668.309-2.778.639-5.556.97-8.312l-.066-.463h-2.05c-1.036-.507-.154-1.984.661-2.271.551-.022,1.124-.044,1.7-.044.794-1.786-.6-4.674,1.543-5.556.353-.066.728-.132,1.1-.176h1.1a1.979,1.979,0,0,1,1.543.6,44.2,44.2,0,0,1-.529,5.115c.11.022.243.044.375.066.661-.022,1.323-.044,1.984-.044l.331.132c.22.816.11,1.962-.926,2.161-.661,0-1.323,0-1.984.022-.419,3.506-.838,7.011-1.257,10.539-.419.683-1.146.772-1.9.9a2.809,2.809,0,0,0-.441.022h-.375" transform="translate(-82.604 -16.534)" fill="#fff" fill-rule="evenodd"/>
    <path id="Caminho_7907" data-name="Caminho 7907" d="M331.35,280.724c-.617-.044-1.257-.11-1.543-.683a2.453,2.453,0,0,1-.044-.375c.419-3.836.441-7.386,2.381-10.693a6.049,6.049,0,0,1,4.564-1.984h.375c.265-.022.529-.044.816-.044h4.85a.637.637,0,0,1,.463.529,3.735,3.735,0,0,0-.022.507,1.81,1.81,0,0,1-1.1,1.257h-.375a5.369,5.369,0,0,0-.6.022h-1.169c-.287,0-.551.022-.816.044h-.066a1.942,1.942,0,0,0-.375.044c-1.786.331-2.161.706-3.021,2.271a32.437,32.437,0,0,0-1.08,7.562,2.444,2.444,0,0,0-.044.419c-.331,1.014-1.433,1.014-2.381,1.124h-.816" transform="translate(-104.051 -29.522)" fill="#fff" fill-rule="evenodd"/>
    <path id="Caminho_7908" data-name="Caminho 7908" d="M616.24,267.736a3.1,3.1,0,0,0-.441-.022c-1.323-.22-1.455-.287-1.455-1.543.353-3.285.728-6.548,1.1-9.811-.728-.022-1.433-.044-2.139-.044-.287-.132-.331-.309-.441-.6v-.353a1.563,1.563,0,0,1,1.1-1.367c.551-.022,1.124-.044,1.7-.044a47.192,47.192,0,0,0,.639-4.784c.331-.816,1.257-.816,2.006-.948h1.1a2.183,2.183,0,0,1,1.543.551,45.457,45.457,0,0,1-.529,5.159c.11.022.243.044.375.066.661-.022,1.323-.044,1.984-.044l.331.132a1.616,1.616,0,0,1-.926,2.183h-1.455a.318.318,0,0,0-.154.044,1.942,1.942,0,0,0-.375.044c-.088.22-1.191,10.01-1.345,10.649a2.627,2.627,0,0,1-1.808.706,2.808,2.808,0,0,0-.441.022h-.375" transform="translate(-300.465 -16.534)" fill="#fff" fill-rule="evenodd"/>
    <path id="Subtração_4" data-name="Subtração 4" d="M-4299.236-939.341h-1.324l-.16-.02-.029,0c-.609-.076-1.185-.147-1.464-.725v-.441l.007-.072q.558-5.851,1.118-11.7a10,10,0,0,1,1.579-4.561,5.167,5.167,0,0,1,4.175-2.031h.353a4.132,4.132,0,0,1,.529-.044h4.035a6.462,6.462,0,0,1,.661.044h.375a7.266,7.266,0,0,1,4.652,1.742l.09.155.022.038c.2.35.414.713.638,1.086l0,.015c.081.464.172.99.284,1.529v1.234a7.6,7.6,0,0,1-3.924,6l-.086.031c-.753.273-1.53.554-2.273.851-1.129.226-2.333.407-3.682.552l-.044-.009a1.188,1.188,0,0,0-.243-.035,1.824,1.824,0,0,0-.375.089h-.039c-.244,0-.465,0-.687.021h-.067c-.309-.022-.6-.022-.882-.022-.336.022-.663.043-.97.066-.25,1.868-.487,3.844-.679,5.432l0,.036a2.564,2.564,0,0,1-1.587.749Zm6.24-17.571c-2.455.522-2.887,1.914-3.307,4.145a41.709,41.709,0,0,0-.442,5.115H-4293c.611-.148,1.23-.276,1.829-.4l.088-.018c2-.869,3-2.346,3.352-4.939v-.97a3.66,3.66,0,0,0-1.149-2.144,4.623,4.623,0,0,0-2.356-.788c-.341,0-.661.02-1.014.044h-.309a3.158,3.158,0,0,0-.44-.044Z" transform="translate(4482 1190.52)" fill="#fff" stroke="rgba(0,0,0,0)" stroke-width="1"/>
    <path id="Caminho_7910" data-name="Caminho 7910" d="M258.411,311.512h.507v.066c-.176-.022-.353-.044-.507-.066" transform="translate(-54.548 -60.443)" fill="#fff" fill-rule="evenodd"/>
    <path id="Caminho_7911" data-name="Caminho 7911" d="M260.067,311.578v-.066h2.359v.066h-2.359" transform="translate(-55.697 -60.443)" fill="#fff" fill-rule="evenodd"/>
    <path id="Caminho_7912" data-name="Caminho 7912" d="M267.771,311.578v-.066H273.5l-5.732.066" transform="translate(-61.042 -60.443)" fill="#fff" fill-rule="evenodd"/>
    <path id="Subtração_3" data-name="Subtração 3" d="M-4287-945.293h-8.6a1.654,1.654,0,0,0-.309-.044,9.1,9.1,0,0,1-3.681-.86,4.787,4.787,0,0,1-2.425-2.778c-.055-.439-.111-.868-.159-1.235l-.04-.309v-.661c.164-3.816,1.7-6.039,4.983-7.209a21.807,21.807,0,0,1,3.087-.552,2.385,2.385,0,0,1,.355.041l.019,0a3.7,3.7,0,0,1,.506-.044h.088c.718,0,1.423.019,2.17.04l.167,0h.44a1.968,1.968,0,0,1,.375-.044l.483.06c2.276.279,4.241.52,5.249,2.762l.015.1,0,.017c.04.255.08.519.138.786v.728c-.283,2.611-1.453,3.212-3.969,3.572h-3.969c-1.644,0-3.2,0-4.784.022a1.077,1.077,0,0,0-.286.089c-.111.11-.111.11-.111.33v.662c.412,1.537,1.692,1.908,3.2,2.2h.008a1.354,1.354,0,0,1,.278.022c.705-.022,1.4-.022,2.138-.022h5.006a1.1,1.1,0,0,1,.613,1.121,1.383,1.383,0,0,1-.987,1.194Zm-6.262-11.288a5.032,5.032,0,0,0-2.558.739,3.3,3.3,0,0,0-1.3,2.194,1.6,1.6,0,0,0,.044.33h6.834c.209,0,.423.021.629.041l.033,0c.247-.09.5-.159.728-.22a2.007,2.007,0,0,0,.176-1.919,4.479,4.479,0,0,0-2.955-1.168c-.427,0-.852.02-1.323.044a1.659,1.659,0,0,0-.309-.044Z" transform="translate(4499.461 1196.363)" fill="#fff" stroke="rgba(0,0,0,0)" stroke-width="1"/>
    <path id="Subtração_5" data-name="Subtração 5" d="M-4287-945.293h-8.6a1.654,1.654,0,0,0-.309-.044,9.1,9.1,0,0,1-3.682-.86,4.785,4.785,0,0,1-2.424-2.778c-.067-.507-.133-.992-.2-1.477v-.794a9.324,9.324,0,0,1,1.61-5.027c1.9-1.793,3.594-2.289,6.46-2.668a2.325,2.325,0,0,1,.351.04l.024,0a3.7,3.7,0,0,1,.506-.044h.088c.716,0,1.42.019,2.165.04h.011l.161,0h1.037l.063.008c2.76.328,5.144.611,5.6,3.74v.6a3.8,3.8,0,0,1-1.141,2.67,5.787,5.787,0,0,1-2.827.968h-.6c-1.2-.024-2.278-.044-3.373-.044l-2.756.038-.184,0-1.844.025a1.077,1.077,0,0,0-.286.089c-.262.261-.129.883-.042,1.294.015.071.031.145.042.205a4.4,4.4,0,0,0,3.013,1.679l.073.018h.01a1.361,1.361,0,0,1,.277.022c.705-.022,1.4-.022,2.138-.022h5.006a1.065,1.065,0,0,1,.62,1.073,1.458,1.458,0,0,1-1,1.242Zm-7.65-8.026h4.41c.211,0,.425.021.632.041l.029,0c.844-.177.993-.427,1.1-1.257-.022,0-.034,0-.042-.01s-.017-.1,0-.343c-.544-1.373-1.711-1.52-3.062-1.691l-.047-.006c-.427,0-.852.02-1.323.044a1.664,1.664,0,0,0-.309-.044c-2.351.191-3.577,1.1-3.858,2.867a2.32,2.32,0,0,0,.044.4Z" transform="translate(4578.392 1196.363)" fill="#fff" stroke="rgba(0,0,0,0)" stroke-width="1"/>
    <path id="Caminho_7918" data-name="Caminho 7918" d="M578.523,310.792h1.036v.022c-.353-.022-.706-.022-1.036-.022" transform="translate(-276.637 -59.943)" fill="#fff" fill-rule="evenodd"/>
    <path id="Caminho_7919" data-name="Caminho 7919" d="M582.627,310.714l5.953-.066v.044c-1.984,0-3.969,0-5.953.022" transform="translate(-279.485 -59.843)" fill="#fff" fill-rule="evenodd"/>
    <path id="Caminho_7920" data-name="Caminho 7920" d="M564.174,280.393v-.022c-.353-.044-.706-.066-1.036-.088h-.353a1.3,1.3,0,0,0-.309.044,9.039,9.039,0,0,1-4.674-1.565,6.143,6.143,0,0,1-1.455-3.351v-1.036c.309-3.792,1.852-5.887,5.556-7.033a13.717,13.717,0,0,1,2.337-.309,1.3,1.3,0,0,1,.309-.044h6.306c.309-.022.639-.044.97-.044.705.573.617,1.279.044,2.028-.176.088-.331.176-.485.265h-3.9c-.573-.022-1.146-.044-1.7-.044-.154.022-.309.044-.441.066-2.668.441-3.307,1.543-3.9,3.991,0,1.918-.22,3.506,1.676,4.542l1.124.265a1.565,1.565,0,0,1,.309.022c1.191-.022,2.381-.022,3.594-.022H571.6c.353.088.463.353.551.661v.441a1.777,1.777,0,0,1-.926,1.169h-.882l-5.953.066h-.22" transform="translate(-261.252 -29.522)" fill="#fff" fill-rule="evenodd"/>
    <path id="Caminho_7921" data-name="Caminho 7921" d="M576.363,310.548a1.3,1.3,0,0,1,.309-.044v.088a1.727,1.727,0,0,0-.309-.044" transform="translate(-275.139 -59.743)" fill="#fff" fill-rule="evenodd"/>
    <path id="Caminho_7922" data-name="Caminho 7922" d="M577.371,310.592V310.5h.353v.088h-.353" transform="translate(-275.838 -59.743)" fill="#fff" fill-rule="evenodd"/>
    <path id="Caminho_7923" data-name="Caminho 7923" d="M578.523,310.592V310.5c.331.022.683.044,1.036.088h-1.036" transform="translate(-276.637 -59.743)" fill="#fff" fill-rule="evenodd"/>
    <path id="Caminho_7924" data-name="Caminho 7924" d="M602.067,310.692v-.044h.882c-.309,0-.6.022-.882.044" transform="translate(-292.972 -59.843)" fill="#fff" fill-rule="evenodd"/>
    <path id="Caminho_7925" data-name="Caminho 7925" d="M329.733,308.488a2.453,2.453,0,0,0,.044.375c-.066,0-.066,0-.044-.375" transform="translate(-104.021 -58.345)" fill="#fff" fill-rule="evenodd"/>
    <path id="Caminho_7928" data-name="Caminho 7928" d="M263.451,303.852a1.116,1.116,0,0,1,.287-.044v.066a1.357,1.357,0,0,0-.287-.022" transform="translate(-58.045 -55.098)" fill="#fff" fill-rule="evenodd"/>
    <path id="Caminho_7929" data-name="Caminho 7929" d="M264.387,303.874v-.066c.706,0,1.411.022,2.139.044-.728,0-1.433,0-2.139.022" transform="translate(-58.694 -55.098)" fill="#fff" fill-rule="evenodd"/>
    <path id="Caminho_7932" data-name="Caminho 7932" d="M582.123,303.132a1.3,1.3,0,0,1,.309-.044v.066a1.56,1.56,0,0,0-.309-.022" transform="translate(-279.135 -54.598)" fill="#fff" fill-rule="evenodd"/>
    <path id="Caminho_7933" data-name="Caminho 7933" d="M583.131,303.154v-.066c1.191,0,2.381.022,3.594.044-1.213,0-2.4,0-3.594.022" transform="translate(-279.834 -54.598)" fill="#fff" fill-rule="evenodd"/>
    <path id="Caminho_7934" data-name="Caminho 7934" d="M369.507,294.664h.066v.331l-.066-.331" transform="translate(-131.625 -48.754)" fill="#fff" fill-rule="evenodd"/>
    <path id="Caminho_7935" data-name="Caminho 7935" d="M369.507,293.365v-.573h.066v.573h-.066" transform="translate(-131.625 -47.455)" fill="#fff" fill-rule="evenodd"/>
    <path id="Caminho_7937" data-name="Caminho 7937" d="M386.111,293.843a1.7,1.7,0,0,1-.044-.331h.066a1.67,1.67,0,0,0-.022.331" transform="translate(-143.114 -47.954)" fill="#fff" fill-rule="evenodd"/>
    <path id="Caminho_7938" data-name="Caminho 7938" d="M236.611,292.288v.661h-.088v-.661h.088" transform="translate(-39.363 -47.105)" fill="#fff" fill-rule="evenodd"/>
    <path id="Caminho_7939" data-name="Caminho 7939" d="M386.067,292.063v-.639h.066v.639h-.066" transform="translate(-143.114 -46.506)" fill="#fff" fill-rule="evenodd"/>
    <path id="Caminho_7942" data-name="Caminho 7942" d="M369.507,291.843c.022-.154.044-.287.066-.419v.419h-.066" transform="translate(-131.625 -46.506)" fill="#fff" fill-rule="evenodd"/>
    <path id="Caminho_7943" data-name="Caminho 7943" d="M196.923,291.418l.97-.066v.066h-.97" transform="translate(-11.889 -46.456)" fill="#fff" fill-rule="evenodd"/>
    <path id="Caminho_7944" data-name="Caminho 7944" d="M200.091,291.418v-.066c.287,0,.573,0,.882.022-.309,0-.6.022-.882.044" transform="translate(-14.087 -46.456)" fill="#fff" fill-rule="evenodd"/>
    <path id="Caminho_7945" data-name="Caminho 7945" d="M203.187,291.374c.243-.022.485-.022.728-.022v.066c-.243-.022-.485-.044-.728-.044" transform="translate(-16.235 -46.456)" fill="#fff" fill-rule="evenodd"/>
    <path id="Caminho_7946" data-name="Caminho 7946" d="M205.563,291.418v-.066h.375c-.132.022-.265.044-.375.066" transform="translate(-17.883 -46.456)" fill="#fff" fill-rule="evenodd"/>
    <path id="Caminho_7947" data-name="Caminho 7947" d="M386.067,290.625a1.714,1.714,0,0,1,.044-.353,2.019,2.019,0,0,0,.022.353h-.066" transform="translate(-143.114 -45.707)" fill="#fff" fill-rule="evenodd"/>
    <path id="Caminho_7948" data-name="Caminho 7948" d="M205.563,291.152a1.866,1.866,0,0,1,.375-.088v.088h-.375" transform="translate(-17.883 -46.256)" fill="#fff" fill-rule="evenodd"/>
    <path id="Caminho_7949" data-name="Caminho 7949" d="M206.787,291.152v-.088a1.516,1.516,0,0,1,.287.044,1.116,1.116,0,0,0-.287.044" transform="translate(-18.732 -46.256)" fill="#fff" fill-rule="evenodd"/>
    <path id="Caminho_7950" data-name="Caminho 7950" d="M414.363,287.689v-.441h.088a2.6,2.6,0,0,0-.088.441" transform="translate(-162.745 -43.609)" fill="#fff" fill-rule="evenodd"/>
    <path id="Caminho_7951" data-name="Caminho 7951" d="M414.363,286.249v-.441h.088v.441h-.088" transform="translate(-162.745 -42.61)" fill="#fff" fill-rule="evenodd"/>
    <path id="Caminho_7952" data-name="Caminho 7952" d="M430.923,285.1v-.375h.088v.375h-.088" transform="translate(-174.235 -41.86)" fill="#fff" fill-rule="evenodd"/>
    <path id="Caminho_7953" data-name="Caminho 7953" d="M414.363,285.059v-.331a1.832,1.832,0,0,0,.088.331h-.088" transform="translate(-162.745 -41.86)" fill="#fff" fill-rule="evenodd"/>
    <path id="Caminho_7954" data-name="Caminho 7954" d="M253.587,285.348V285.3h2.425v.088c-.816-.022-1.632-.044-2.425-.044" transform="translate(-51.201 -42.26)" fill="#fff" fill-rule="evenodd"/>
    <path id="Caminho_7955" data-name="Caminho 7955" d="M261.507,285.392V285.3h4.41v.088h-4.41" transform="translate(-56.696 -42.26)" fill="#fff" fill-rule="evenodd"/>
    <path id="Caminho_7956" data-name="Caminho 7956" d="M275.907,285.392V285.3c.22,0,.441.022.661.044-.22,0-.441.022-.661.044" transform="translate(-66.687 -42.26)" fill="#fff" fill-rule="evenodd"/>
    <path id="Caminho_7957" data-name="Caminho 7957" d="M511.347,285.348V285.3h2.425v.088c-.816-.022-1.632-.044-2.425-.044" transform="translate(-230.032 -42.26)" fill="#fff" fill-rule="evenodd"/>
    <path id="Caminho_7958" data-name="Caminho 7958" d="M519.267,285.392V285.3h4.409v.088h-4.409" transform="translate(-235.526 -42.26)" fill="#fff" fill-rule="evenodd"/>
    <path id="Caminho_7959" data-name="Caminho 7959" d="M533.667,285.392V285.3c.221,0,.441.022.661.044-.221,0-.441.022-.661.044" transform="translate(-245.517 -42.26)" fill="#fff" fill-rule="evenodd"/>
    <path id="Caminho_7960" data-name="Caminho 7960" d="M253.413,284.224a1.7,1.7,0,0,0,.044.331v.044c-.066,0-.066,0-.044-.375" transform="translate(-51.072 -41.511)" fill="#fff" fill-rule="evenodd"/>
    <path id="Caminho_7962" data-name="Caminho 7962" d="M511.173,284.008a2.432,2.432,0,0,0,.044.4v.044c-.066,0-.066,0-.044-.441" transform="translate(-229.902 -41.361)" fill="#fff" fill-rule="evenodd"/>
    <path id="Caminho_7965" data-name="Caminho 7965" d="M295.851,279.84v-.728a1.359,1.359,0,0,1,0,.728" transform="translate(-80.524 -37.964)" fill="#fff" fill-rule="evenodd"/>
    <path id="Caminho_7966" data-name="Caminho 7966" d="M539.253,280.192a2.2,2.2,0,0,0,.044.353c-.066,0-.066,0-.044-.353" transform="translate(-249.383 -38.713)" fill="#fff" fill-rule="evenodd"/>
    <path id="Caminho_7968" data-name="Caminho 7968" d="M266.043,274.548a1.3,1.3,0,0,1,.309-.044v.088a1.728,1.728,0,0,0-.309-.044" transform="translate(-59.843 -34.767)" fill="#fff" fill-rule="evenodd"/>
    <path id="Caminho_7969" data-name="Caminho 7969" d="M267.051,274.592V274.5c.441,0,.882.022,1.323.044-.441,0-.882.022-1.323.044" transform="translate(-60.543 -34.767)" fill="#fff" fill-rule="evenodd"/>
    <path id="Caminho_7970" data-name="Caminho 7970" d="M300.387,274.5h2.05v.088h-2.05V274.5" transform="translate(-83.671 -34.767)" fill="#fff" fill-rule="evenodd"/>
    <path id="Caminho_7971" data-name="Caminho 7971" d="M360.363,274.548c.265-.022.529-.044.816-.044v.088c-.287-.022-.551-.044-.816-.044" transform="translate(-125.281 -34.767)" fill="#fff" fill-rule="evenodd"/>
    <path id="Caminho_7972" data-name="Caminho 7972" d="M363.027,274.592V274.5h.6v.088h-.6" transform="translate(-127.129 -34.767)" fill="#fff" fill-rule="evenodd"/>
    <path id="Caminho_7973" data-name="Caminho 7973" d="M364.971,274.592V274.5h.507a3.472,3.472,0,0,0-.507.088" transform="translate(-128.478 -34.767)" fill="#fff" fill-rule="evenodd"/>
    <path id="Caminho_7974" data-name="Caminho 7974" d="M399.747,274.592V274.5h1.323v.088h-1.323" transform="translate(-152.605 -34.767)" fill="#fff" fill-rule="evenodd"/>
    <path id="Caminho_7975" data-name="Caminho 7975" d="M523.8,274.548a1.3,1.3,0,0,1,.309-.044v.088a1.727,1.727,0,0,0-.309-.044" transform="translate(-238.673 -34.767)" fill="#fff" fill-rule="evenodd"/>
    <path id="Caminho_7976" data-name="Caminho 7976" d="M524.811,274.592V274.5c.441,0,.882.022,1.323.044-.441,0-.882.022-1.323.044" transform="translate(-239.373 -34.767)" fill="#fff" fill-rule="evenodd"/>
    <path id="Caminho_7977" data-name="Caminho 7977" d="M586.011,274.5h.287v.088h-.287V274.5" transform="translate(-281.832 -34.767)" fill="#fff" fill-rule="evenodd"/>
    <path id="Caminho_7978" data-name="Caminho 7978" d="M638.571,274.5h1.455v.088h-1.455V274.5" transform="translate(-318.298 -34.767)" fill="#fff" fill-rule="evenodd"/>
    <path id="Caminho_7979" data-name="Caminho 7979" d="M585.723,274.354c.132-.022.287-.044.441-.066v.066h-.441" transform="translate(-281.633 -34.617)" fill="#fff" fill-rule="evenodd"/>
    <path id="Caminho_7980" data-name="Caminho 7980" d="M587.163,274.354v-.066c.551,0,1.124.022,1.7.044-.573,0-1.146,0-1.7.022" transform="translate(-282.632 -34.617)" fill="#fff" fill-rule="evenodd"/>
    <path id="Caminho_7981" data-name="Caminho 7981" d="M465.483,273.108a2.713,2.713,0,0,1,.441-.044v.088a3.311,3.311,0,0,0-.441-.044" transform="translate(-198.212 -33.768)" fill="#fff" fill-rule="evenodd"/>
    <path id="Caminho_7982" data-name="Caminho 7982" d="M466.923,273.152v-.088h.441v.088h-.441" transform="translate(-199.211 -33.768)" fill="#fff" fill-rule="evenodd"/>
    <path id="Caminho_7983" data-name="Caminho 7983" d="M468.363,273.152v-.088a1.728,1.728,0,0,1,.309.044,1.3,1.3,0,0,0-.309.044" transform="translate(-200.21 -33.768)" fill="#fff" fill-rule="evenodd"/>
    <path id="Caminho_7984" data-name="Caminho 7984" d="M612.755,271.552v.353c-.066,0-.066-.353,0-.353" transform="translate(-300.352 -32.719)" fill="#fff" fill-rule="evenodd"/>
    <path id="Caminho_7985" data-name="Caminho 7985" d="M444.6,267.392V267.3h1.1v.088h-1.1" transform="translate(-183.726 -29.772)" fill="#fff" fill-rule="evenodd"/>
    <path id="Caminho_7986" data-name="Caminho 7986" d="M583.131,266.938c.11-.022.22-.044.353-.066v.066h-.353" transform="translate(-279.834 -29.472)" fill="#fff" fill-rule="evenodd"/>
    <path id="Caminho_7987" data-name="Caminho 7987" d="M263.163,266.894a2.019,2.019,0,0,1,.375-.022v.066a2.453,2.453,0,0,0-.375-.044" transform="translate(-57.845 -29.472)" fill="#fff" fill-rule="evenodd"/>
    <path id="Caminho_7988" data-name="Caminho 7988" d="M264.387,266.938v-.066a4.078,4.078,0,0,1,.507.022,3.616,3.616,0,0,0-.507.044" transform="translate(-58.694 -29.472)" fill="#fff" fill-rule="evenodd"/>
    <path id="Caminho_7989" data-name="Caminho 7989" d="M266.331,266.894c.772-.022,1.543-.022,2.337-.022v.066c-.794-.022-1.565-.044-2.337-.044" transform="translate(-60.043 -29.472)" fill="#fff" fill-rule="evenodd"/>
    <path id="Caminho_7990" data-name="Caminho 7990" d="M273.963,266.938v-.066h.441v.066h-.441" transform="translate(-65.338 -29.472)" fill="#fff" fill-rule="evenodd"/>
    <path id="Caminho_7991" data-name="Caminho 7991" d="M275.4,266.938v-.066a2.269,2.269,0,0,1,.375.022,1.94,1.94,0,0,0-.375.044" transform="translate(-66.337 -29.472)" fill="#fff" fill-rule="evenodd"/>
    <path id="Caminho_7992" data-name="Caminho 7992" d="M302.547,266.958c0-.066,0-.066,1.7-.044-.573,0-1.146.022-1.7.044" transform="translate(-85.169 -29.492)" fill="#fff" fill-rule="evenodd"/>
    <path id="Caminho_7993" data-name="Caminho 7993" d="M323.643,266.872h.375v.066c-.132-.022-.265-.044-.375-.066" transform="translate(-99.805 -29.472)" fill="#fff" fill-rule="evenodd"/>
    <path id="Caminho_7994" data-name="Caminho 7994" d="M324.867,266.938v-.066c.661,0,1.323,0,1.984.022-.661,0-1.323.022-1.984.044" transform="translate(-100.654 -29.472)" fill="#fff" fill-rule="evenodd"/>
    <path id="Caminho_7995" data-name="Caminho 7995" d="M352.443,266.938c.11-.022.242-.044.375-.066v.066h-.375" transform="translate(-119.786 -29.472)" fill="#fff" fill-rule="evenodd"/>
    <path id="Caminho_7996" data-name="Caminho 7996" d="M353.667,266.938v-.066c.265,0,.529,0,.816.022-.287,0-.551.022-.816.044" transform="translate(-120.635 -29.472)" fill="#fff" fill-rule="evenodd"/>
    <path id="Caminho_7997" data-name="Caminho 7997" d="M396.363,266.938c.11-.022.242-.044.375-.066v.066h-.375" transform="translate(-150.257 -29.472)" fill="#fff" fill-rule="evenodd"/>
    <path id="Caminho_7998" data-name="Caminho 7998" d="M397.587,266.938v-.066a5.376,5.376,0,0,1,.6.022,5.4,5.4,0,0,0-.6.044" transform="translate(-151.107 -29.472)" fill="#fff" fill-rule="evenodd"/>
    <path id="Caminho_7999" data-name="Caminho 7999" d="M399.747,266.894c.794-.022,1.609-.022,2.425-.022v.066c-.816-.022-1.632-.044-2.425-.044" transform="translate(-152.605 -29.472)" fill="#fff" fill-rule="evenodd"/>
    <path id="Caminho_8000" data-name="Caminho 8000" d="M407.667,266.938v-.066h.507v.066h-.507" transform="translate(-158.1 -29.472)" fill="#fff" fill-rule="evenodd"/>
    <path id="Caminho_8001" data-name="Caminho 8001" d="M409.323,266.938v-.066c.088.022.2.044.309.066h-.309" transform="translate(-159.249 -29.472)" fill="#fff" fill-rule="evenodd"/>
    <path id="Caminho_8002" data-name="Caminho 8002" d="M467.643,266.894c.309-.022.639-.022.97-.022v.066c-.331-.022-.661-.044-.97-.044" transform="translate(-199.71 -29.472)" fill="#fff" fill-rule="evenodd"/>
    <path id="Caminho_8003" data-name="Caminho 8003" d="M470.811,266.938v-.066h.573v.066h-.573" transform="translate(-201.908 -29.472)" fill="#fff" fill-rule="evenodd"/>
    <path id="Caminho_8004" data-name="Caminho 8004" d="M472.683,266.938v-.066h.375v.066h-.375" transform="translate(-203.207 -29.472)" fill="#fff" fill-rule="evenodd"/>
    <path id="Caminho_8005" data-name="Caminho 8005" d="M473.907,266.938v-.066c.088.022.176.044.287.066h-.287" transform="translate(-204.056 -29.472)" fill="#fff" fill-rule="evenodd"/>
    <path id="Caminho_8006" data-name="Caminho 8006" d="M520.923,266.894a2.019,2.019,0,0,1,.375-.022v.066a2.452,2.452,0,0,0-.375-.044" transform="translate(-236.675 -29.472)" fill="#fff" fill-rule="evenodd"/>
    <path id="Caminho_8007" data-name="Caminho 8007" d="M522.147,266.938v-.066a4.077,4.077,0,0,1,.507.022,3.617,3.617,0,0,0-.507.044" transform="translate(-237.524 -29.472)" fill="#fff" fill-rule="evenodd"/>
    <path id="Caminho_8008" data-name="Caminho 8008" d="M524.091,266.894c.772-.022,1.543-.022,2.337-.022v.066c-.794-.022-1.565-.044-2.337-.044" transform="translate(-238.873 -29.472)" fill="#fff" fill-rule="evenodd"/>
    <path id="Caminho_8009" data-name="Caminho 8009" d="M531.723,266.938v-.066h.441v.066h-.441" transform="translate(-244.168 -29.472)" fill="#fff" fill-rule="evenodd"/>
    <path id="Caminho_8010" data-name="Caminho 8010" d="M533.163,266.938v-.066h.309v.066h-.309" transform="translate(-245.167 -29.472)" fill="#fff" fill-rule="evenodd"/>
    <path id="Caminho_8011" data-name="Caminho 8011" d="M534.171,266.938v-.066c.088.022.176.044.287.066h-.287" transform="translate(-245.867 -29.472)" fill="#fff" fill-rule="evenodd"/>
    <path id="Caminho_8012" data-name="Caminho 8012" d="M584.283,266.938v-.066h.6v.066h-.6" transform="translate(-280.634 -29.472)" fill="#fff" fill-rule="evenodd"/>
    <path id="Caminho_8013" data-name="Caminho 8013" d="M586.227,266.938v-.066h5.358v.066h-5.358" transform="translate(-281.982 -29.472)" fill="#fff" fill-rule="evenodd"/>
    <path id="Caminho_8014" data-name="Caminho 8014" d="M603.723,266.938v-.066c.309,0,.639,0,.97.022-.331,0-.661.022-.97.044" transform="translate(-294.121 -29.472)" fill="#fff" fill-rule="evenodd"/>
    <path id="Caminho_8015" data-name="Caminho 8015" d="M616.467,266.958c0-.066,0-.066,1.7-.044-.573,0-1.146.022-1.7.044" transform="translate(-302.962 -29.492)" fill="#fff" fill-rule="evenodd"/>
    <path id="Caminho_8016" data-name="Caminho 8016" d="M637.563,266.872h.375v.066c-.132-.022-.265-.044-.375-.066" transform="translate(-317.598 -29.472)" fill="#fff" fill-rule="evenodd"/>
    <path id="Caminho_8017" data-name="Caminho 8017" d="M638.787,266.938v-.066c.661,0,1.323,0,1.984.022-.661,0-1.323.022-1.984.044" transform="translate(-318.448 -29.472)" fill="#fff" fill-rule="evenodd"/>
    <path id="Caminho_8018" data-name="Caminho 8018" d="M394.987,224.464a1.519,1.519,0,0,1,.287.044h2.139a1.118,1.118,0,0,1,.287-.044,39.5,39.5,0,0,1,4.784.838c3.373,1.257,8.753,3.726,9.988,7.43v.529a2.529,2.529,0,0,1-2.05,2.117h-.661a3.131,3.131,0,0,1-1.3-.639c-3.484-4.3-7.849-7.055-13.471-7.518-.11-.022-.22-.044-.309-.066h-1.83c-.11.022-.2.044-.287.066a1.3,1.3,0,0,0-.309.044,18.8,18.8,0,0,0-13.868,8.246.61.61,0,0,1-.022-.2,22.07,22.07,0,0,1,10.3-9.348,20.881,20.881,0,0,1,6.328-1.5" transform="translate(-137.769 -0.05)" fill="#fff" fill-rule="evenodd"/>
    <path id="Caminho_8019" data-name="Caminho 8019" d="M480.891,260.1h.661v.088h-.661V260.1" transform="translate(-208.902 -24.776)" fill="#fff" fill-rule="evenodd"/>
    <path id="Caminho_8020" data-name="Caminho 8020" d="M209.883,254.388a2.714,2.714,0,0,1,.441-.044v.088a3.313,3.313,0,0,0-.441-.044" transform="translate(-20.88 -20.78)" fill="#fff" fill-rule="evenodd"/>
    <path id="Caminho_8021" data-name="Caminho 8021" d="M211.323,254.432v-.088h.309v.088h-.309" transform="translate(-21.879 -20.78)" fill="#fff" fill-rule="evenodd"/>
    <path id="Caminho_8022" data-name="Caminho 8022" d="M212.331,254.432v-.088c.331,0,.661.022,1.014.044-.353,0-.683.022-1.014.044" transform="translate(-22.579 -20.78)" fill="#fff" fill-rule="evenodd"/>
    <path id="Caminho_8023" data-name="Caminho 8023" d="M489.747,251.993v-.529c.066,0,.066.529,0,.529" transform="translate(-215.046 -18.782)" fill="#fff" fill-rule="evenodd"/>
    <path id="Caminho_8024" data-name="Caminho 8024" d="M203.4,247.908a2.714,2.714,0,0,1,.441-.044h.088a4.281,4.281,0,0,0-.529.044" transform="translate(-16.384 -16.285)" fill="#fff" fill-rule="evenodd"/>
    <path id="Caminho_8025" data-name="Caminho 8025" d="M204.843,247.752c0-.066,4.123-.066,4.123,0h-4.123" transform="translate(-17.383 -16.172)" fill="#fff" fill-rule="evenodd"/>
    <path id="Caminho_8026" data-name="Caminho 8026" d="M424.731,233.314c.088-.022.176-.044.287-.066v.066h-.287" transform="translate(-169.939 -6.144)" fill="#fff" fill-rule="evenodd"/>
    <path id="Caminho_8027" data-name="Caminho 8027" d="M425.667,233.314v-.066h.441v.066h-.441" transform="translate(-170.588 -6.144)" fill="#fff" fill-rule="evenodd"/>
    <path id="Caminho_8028" data-name="Caminho 8028" d="M427.107,233.314v-.066h.948v.066h-.948" transform="translate(-171.587 -6.144)" fill="#fff" fill-rule="evenodd"/>
    <path id="Caminho_8029" data-name="Caminho 8029" d="M430.2,233.314v-.066h.441v.066H430.2" transform="translate(-173.735 -6.144)" fill="#fff" fill-rule="evenodd"/>
    <path id="Caminho_8030" data-name="Caminho 8030" d="M431.643,233.314v-.066c.088.022.2.044.309.066h-.309" transform="translate(-174.734 -6.144)" fill="#fff" fill-rule="evenodd"/>
    <path id="Caminho_8031" data-name="Caminho 8031" d="M432.651,224.414a1.166,1.166,0,0,1,.287-.022v.066a1.517,1.517,0,0,0-.287-.044" transform="translate(-175.433)" fill="#fff" fill-rule="evenodd"/>
    <path id="Caminho_8032" data-name="Caminho 8032" d="M433.587,224.458v-.066h.375v.066h-.375" transform="translate(-176.083)" fill="#fff" fill-rule="evenodd"/>
    <path id="Caminho_8033" data-name="Caminho 8033" d="M434.811,224.458v-.066h1.764v.066h-1.764" transform="translate(-176.932)" fill="#fff" fill-rule="evenodd"/>
    <path id="Caminho_8034" data-name="Caminho 8034" d="M440.571,224.458v-.066a1.357,1.357,0,0,1,.287.022,1.117,1.117,0,0,0-.287.044" transform="translate(-180.928)" fill="#fff" fill-rule="evenodd"/>
  </g>
</svg>
