<svg id="_24px" data-name="24px" xmlns="http://www.w3.org/2000/svg" width="18.616" height="18.616" viewBox="0 0 18.616 18.616">
  <path id="Caminho_8038" data-name="Caminho 8038" d="M0,0H18.616V18.616H0Z" fill="none"/>
  <path id="Caminho_8039" data-name="Caminho 8039" d="M14.635,12.921a2.259,2.259,0,0,0-1.52.6L7.584,10.3a2.539,2.539,0,0,0,.07-.543,2.539,2.539,0,0,0-.07-.543l5.468-3.188a2.322,2.322,0,1,0-.745-1.7,2.539,2.539,0,0,0,.07.543L6.909,8.058a2.327,2.327,0,1,0,0,3.4l5.523,3.227a2.188,2.188,0,0,0-.062.5,2.265,2.265,0,1,0,2.265-2.265Z" transform="translate(-0.673 -0.449)" fill="#404040"/>
</svg>
