<svg id="_24px_2_" data-name="24px (2)" xmlns="http://www.w3.org/2000/svg" width="21.451" height="21.451" viewBox="0 0 21.451 21.451">
  <path id="Caminho_8042" data-name="Caminho 8042" d="M0,0H21.451V21.451H0Z" fill="none"/>
  <path id="Caminho_8043" data-name="Caminho 8043" d="M10.938,2a8.938,8.938,0,1,0,8.938,8.938A8.941,8.941,0,0,0,10.938,2Zm.894,15.195H10.044V15.407h1.788Zm1.85-6.927-.8.822a3.043,3.043,0,0,0-1.046,2.529H10.044v-.447a3.6,3.6,0,0,1,1.046-2.529L12.2,9.517a1.748,1.748,0,0,0,.527-1.26,1.788,1.788,0,0,0-3.575,0H7.363a3.575,3.575,0,0,1,7.15,0A2.844,2.844,0,0,1,13.682,10.268Z" transform="translate(-0.212 -0.212)" fill="#404040"/>
</svg>
