<svg xmlns="http://www.w3.org/2000/svg" width="18" height="18" viewBox="0 0 18 18">
  <path id="Subtração_1" data-name="Subtração 1" d="M-6892-1012a9.01,9.01,0,0,1-9-9,9.011,9.011,0,0,1,9-9,9.01,9.01,0,0,1,9,9A9.009,9.009,0,0,1-6892-1012Zm1.579-12.645-6.58,6.64v2.272h2.272l6.582-6.64Zm2.213-1.854a.593.593,0,0,0-.419.179l-1.076,1.075,2.272,2.274,1.017-1.136a.592.592,0,0,0,.18-.419.592.592,0,0,0-.18-.419l-1.375-1.375A.593.593,0,0,0-6888.207-1026.5Z" transform="translate(6901 1030)" fill="#fff"/>
</svg>
