<svg xmlns="http://www.w3.org/2000/svg" width="15.184" height="15.183" viewBox="0 0 15.184 15.183">
  <path id="Caminho_7876" data-name="Caminho 7876" d="M3,11.435H4.687V9.748H3Zm0,3.374H4.687V13.122H3Zm1.687,3.374V16.5H3A1.692,1.692,0,0,0,4.687,18.183ZM3,8.061H4.687V6.374H3ZM13.122,18.183h1.687V16.5H13.122ZM16.5,3H8.061A1.692,1.692,0,0,0,6.374,4.687V6.374h0v6.748a1.692,1.692,0,0,0,1.687,1.687H16.5a1.692,1.692,0,0,0,1.687-1.687V4.687A1.692,1.692,0,0,0,16.5,3Zm0,10.122H8.061V4.687H16.5ZM9.748,18.183h1.687V16.5H9.748Zm-3.374,0H8.061V16.5H6.374Z" transform="translate(-3 -3)" fill="#404040" opacity="0.25"/>
</svg>
