<svg xmlns="http://www.w3.org/2000/svg" width="13.094" height="14.549" viewBox="0 0 13.094 14.549">
  <path id="Caminho_7874" data-name="Caminho 7874" d="M13.912,12.912H5.182V11.457h8.73Zm0-2.91H5.182V8.547h8.73Zm0-2.91H5.182V5.637h8.73ZM3,16.549l1.091-1.091,1.091,1.091,1.091-1.091,1.091,1.091,1.091-1.091,1.091,1.091,1.091-1.091,1.091,1.091,1.091-1.091,1.091,1.091L15,15.458l1.091,1.091V2L15,3.091,13.912,2,12.821,3.091,11.73,2,10.638,3.091,9.547,2,8.456,3.091,7.365,2,6.274,3.091,5.182,2,4.091,3.091,3,2Z" transform="translate(-3 -2)" fill="#404040" opacity="0.25"/>
</svg>
