<svg xmlns="http://www.w3.org/2000/svg" width="27.12" height="31" viewBox="0 0 27.12 31"><defs><style>.a{fill:#fff;fill-rule:evenodd;}</style></defs><g transform="translate(-605.434 -649)"><path class="a" d="M376.563,320.134v-.4a2.014,2.014,0,0,1,1.76-1.673h.293c1.277.172,2.156,1.794,3,2.639a14.739,14.739,0,0,0,8.557,3.743,1.186,1.186,0,0,1,.224.035c.086.017.19.035.293.052h1.087c.086-.017.19-.035.293-.052a.874.874,0,0,1,.224-.035,14.905,14.905,0,0,0,10.886-6.366c0,.776-1.449,2.346-1.915,2.967a18.776,18.776,0,0,1-7.125,4.813c-1.311.328-2.6.569-3.968.776h-2.191a16.879,16.879,0,0,1-11.024-5.52,2.916,2.916,0,0,1-.4-.983" transform="translate(228.871 353.362)"/><path class="a" d="M391.371,224.464a1.188,1.188,0,0,1,.224.034h1.673a.874.874,0,0,1,.224-.034,30.908,30.908,0,0,1,3.744.656c2.64.983,6.849,2.915,7.815,5.814v.414a1.979,1.979,0,0,1-1.6,1.656h-.517a2.45,2.45,0,0,1-1.018-.5,14.778,14.778,0,0,0-10.541-5.883c-.086-.017-.173-.035-.242-.052H389.7c-.086.017-.155.035-.224.052a1.019,1.019,0,0,0-.242.034,14.707,14.707,0,0,0-10.851,6.452.478.478,0,0,1-.017-.155,17.269,17.269,0,0,1,8.057-7.314,16.339,16.339,0,0,1,4.951-1.173" transform="translate(227.502 424.536)"/></g></svg>