<svg xmlns="http://www.w3.org/2000/svg" width="21.9" height="19" viewBox="0 0 21.9 19"><defs><style>.a{fill:#cecece;}</style></defs><g transform="translate(-1 -3)"><path class="a" d="M12,7a4.951,4.951,0,0,1,5,5,3.661,3.661,0,0,1-.4,1.8l2.9,2.9A12.093,12.093,0,0,0,22.9,12a11.782,11.782,0,0,0-11-7.5,13.442,13.442,0,0,0-4,.7l2.2,2.2A4.333,4.333,0,0,1,12,7ZM2,4.3,4.3,6.6l.4.4A10.8,10.8,0,0,0,1,12a11.782,11.782,0,0,0,11,7.5,13.172,13.172,0,0,0,4.4-.8l.4.4L19.7,22,21,20.7,3.3,3ZM7.5,9.8,9,11.3V12a2.946,2.946,0,0,0,3,3,1.952,1.952,0,0,0,.7-.1l1.5,1.5A4.282,4.282,0,0,1,12,17a4.951,4.951,0,0,1-5-5A5.45,5.45,0,0,1,7.5,9.8ZM11.8,9l3.1,3.1v-.2a2.946,2.946,0,0,0-3-3C11.9,9,11.9,9,11.8,9Z"/></g></svg>