<svg xmlns="http://www.w3.org/2000/svg" width="18.001" height="18.001" viewBox="0 0 18.001 18.001"><defs><style>.a{fill:#fff;}</style></defs><path class="a" d="M-9061,1285a9.011,9.011,0,0,1-9-9,9.011,9.011,0,0,1,9-9,9.01,9.01,0,0,1,9,9A9.01,9.01,0,0,1-9061,1285Zm1.129-7.471h0l.172.172v.458l2.863,2.864.858-.858-2.863-2.864h-.458l-.173-.173a3.558,3.558,0,0,0,.917-2.406,3.727,3.727,0,0,0-3.724-3.722,3.726,3.726,0,0,0-3.722,3.722,3.727,3.727,0,0,0,3.722,3.724,3.56,3.56,0,0,0,2.405-.917Zm-2.406-.228a2.561,2.561,0,0,1-1.825-.753,2.566,2.566,0,0,1-.751-1.826,2.562,2.562,0,0,1,.751-1.825,2.563,2.563,0,0,1,1.825-.751,2.57,2.57,0,0,1,1.827.751,2.566,2.566,0,0,1,.752,1.825,2.569,2.569,0,0,1-.752,1.826A2.568,2.568,0,0,1-9062.277,1277.3Z" transform="translate(9070.001 -1266.999)"/></svg>