<svg id="_24px_1_" data-name="24px (1)" xmlns="http://www.w3.org/2000/svg" width="18.616" height="18.616" viewBox="0 0 18.616 18.616">
  <path id="Caminho_8040" data-name="Caminho 8040" d="M14.369,4.878V13.8a3.1,3.1,0,1,1-6.205,0V4.1a1.939,1.939,0,0,1,3.878,0v8.144a.776.776,0,0,1-1.551,0V4.878H9.327v7.369a1.939,1.939,0,0,0,3.878,0V4.1A3.1,3.1,0,1,0,7,4.1v9.7a4.266,4.266,0,1,0,8.532,0V4.878Z" transform="translate(-1.57 -0.224)" fill="#404040"/>
  <path id="Caminho_8041" data-name="Caminho 8041" d="M0,0H18.616V18.616H0Z" fill="none"/>
</svg>
